<svg width="154" height="25" viewBox="0 0 154 25" fill="none" xmlns="http://www.w3.org/2000/svg">
<path d="M13.64 19L14.216 14.344H13.352L12.464 15.64C11.432 17.104 11.024 17.368 9.68 17.368H7.328C6.152 17.368 5.84 17.056 5.84 15.928V11.488H8.504C9.32 11.488 9.728 11.728 10.136 12.784L10.52 13.768H11.384V8.05601H10.52L10.112 8.84801C9.70399 9.64001 9.368 9.85601 8.504 9.85601H5.84V4.19201H9.608C10.712 4.19201 11.216 4.552 12.128 5.80001L12.896 6.85601H13.784L13.544 2.56H0.00799561V3.42401L0.775995 3.83201C1.64 4.288 1.784 4.64801 1.784 5.44001V16.12C1.784 16.912 1.64 17.248 0.775995 17.728L0.00799561 18.136V19H13.64Z" fill="#0A0911"/>
<path d="M18.9404 5.22401C20.2844 5.22401 21.1724 4.31201 21.1724 2.96801C21.1724 1.57601 20.1884 0.712006 18.9404 0.712006C17.6924 0.712006 16.7084 1.60001 16.7084 2.96801C16.7084 4.19201 17.5964 5.22401 18.9404 5.22401ZM22.9004 19V18.184L22.0604 17.728C21.3644 17.32 21.1724 17.032 21.1724 16.12V7.12001L20.4284 6.66401L15.7244 8.56001V9.37601L16.4924 9.68801C17.1644 9.95201 17.3564 10.288 17.3564 11.512V16.12C17.3564 17.032 17.1644 17.32 16.4684 17.728L15.6284 18.184V19H22.9004Z" fill="#0A0911"/>
<path d="M30.743 19.24C34.295 19.24 37.223 16.48 37.223 12.976C37.223 9.16001 34.607 6.66401 30.743 6.66401C27.167 6.66401 24.239 9.448 24.239 12.928C24.239 16.744 26.879 19.24 30.743 19.24ZM30.743 17.728C29.255 17.728 28.391 15.952 28.391 12.928C28.391 9.90401 29.255 8.176 30.743 8.176C32.207 8.176 33.071 9.95201 33.071 12.976C33.071 16 32.207 17.728 30.743 17.728Z" fill="#0A0911"/>
<path d="M45.7017 19V18.184L44.8617 17.728C44.2377 17.368 44.1177 17.104 44.1177 16.12V10.672C44.6697 10.096 45.4377 9.66401 46.1577 9.66401C47.5497 9.66401 48.2937 10.6 48.2937 12.376V16.12C48.2937 17.104 48.1737 17.368 47.5497 17.728L46.7097 18.184V19H53.8377V18.184L52.9977 17.728C52.2777 17.32 52.1097 17.008 52.1097 16.12V11.632C52.1097 8.51201 50.6217 6.66401 48.1257 6.66401C46.6857 6.66401 45.1017 7.67201 43.8057 9.30401V7.12001L43.0617 6.66401L38.6697 8.56001V9.37601L39.4377 9.68801C40.1337 9.97601 40.3017 10.312 40.3017 11.512V16.12C40.3017 17.008 40.1337 17.32 39.4137 17.728L38.5737 18.184V19H45.7017Z" fill="#0A0911"/>
<path d="M71.9146 18.664L76.5706 6.25601L77.6266 16.12C77.6506 16.288 77.6746 16.504 77.6746 16.672C77.6746 17.248 77.4346 17.44 76.7146 17.752L75.8026 18.16V19H83.5546V18.16L82.7626 17.728C82.0426 17.368 81.8746 17.104 81.7546 16.12L80.3626 4.96001C80.3386 4.81601 80.3386 4.72001 80.3386 4.624C80.3386 4.33601 80.5066 4.19201 81.2986 3.80801L82.0666 3.42401V2.56H76.1386L72.1306 13.36L68.0506 2.56H61.8346V3.42401L62.6026 3.80801C63.3946 4.19201 63.5626 4.288 63.5626 4.624C63.5626 4.72001 63.5626 4.768 63.5386 4.96001L62.1466 16.12C62.0266 17.104 61.8346 17.368 61.1386 17.728L60.3466 18.16V19H66.0346V18.16L65.1226 17.752C64.2346 17.392 64.0426 17.2 64.0426 16.6C64.0426 16.456 64.0426 16.312 64.0666 16.12L65.1226 6.32801L70.1866 19.384L71.9146 18.664Z" fill="#0A0911"/>
<path d="M91.1414 19.24C94.6934 19.24 97.6214 16.48 97.6214 12.976C97.6214 9.16001 95.0054 6.66401 91.1414 6.66401C87.5654 6.66401 84.6374 9.448 84.6374 12.928C84.6374 16.744 87.2774 19.24 91.1414 19.24ZM91.1414 17.728C89.6534 17.728 88.7894 15.952 88.7894 12.928C88.7894 9.90401 89.6534 8.176 91.1414 8.176C92.6054 8.176 93.4694 9.95201 93.4694 12.976C93.4694 16 92.6054 17.728 91.1414 17.728Z" fill="#0A0911"/>
<path d="M106.796 19V18.184L105.836 17.728C104.828 17.224 104.516 16.864 104.516 16.12V10.672C105.236 10 105.812 9.592 106.364 9.592C107.132 9.592 107.588 9.92801 108.428 11.056H109.34L109.724 7.57601C109.1 6.97601 108.284 6.66401 107.468 6.66401C106.316 6.66401 104.9 7.84001 104.204 9.30401V7.12001L103.46 6.66401L99.0682 8.56001V9.37601L99.8362 9.68801C100.508 9.95201 100.7 10.288 100.7 11.512V16.12C100.7 17.008 100.508 17.32 99.8122 17.728L98.9722 18.184V19H106.796Z" fill="#0A0911"/>
<path d="M115.739 25C120.299 25 123.515 22.816 123.515 19.72C123.515 17.416 122.267 16.504 119.123 16.504H116.147C115.091 16.504 114.515 16.384 114.227 16.168C114.107 16.048 114.035 15.904 114.035 15.688L114.467 14.944C115.067 15.112 115.715 15.184 116.411 15.184C119.723 15.184 122.051 13.504 122.051 11.056C122.051 10.072 121.787 9.25601 121.211 8.56001L123.467 8.82401L123.587 6.66401H122.747L119.243 7.12001C118.451 6.83201 117.491 6.66401 116.411 6.66401C113.219 6.66401 110.747 8.512 110.747 10.936C110.747 12.448 111.635 13.696 113.075 14.44L110.819 17.248C110.795 17.368 110.795 17.464 110.795 17.656C110.795 18.832 111.395 19.504 112.787 19.84C111.155 20.776 110.579 21.544 110.579 22.312C110.579 24.064 112.355 25 115.739 25ZM116.459 13.72C115.403 13.72 114.731 12.64 114.731 10.936C114.731 9.28 115.451 8.12801 116.459 8.12801C117.491 8.12801 118.091 9.16 118.091 10.936C118.091 12.712 117.491 13.72 116.459 13.72ZM117.179 22.936C114.755 22.936 113.699 22.432 113.699 21.352C113.699 21.064 113.771 20.728 114.131 20.08C114.563 20.104 114.707 20.08 114.875 20.08H118.571C120.659 20.08 121.307 20.344 121.307 21.232C121.307 22.192 119.507 22.936 117.179 22.936Z" fill="#0A0911"/>
<path d="M128.199 19.24C129.447 19.24 130.767 18.496 131.559 17.344L132.279 19.24H132.927L137.271 17.608L137.103 16.72L136.335 16.552C135.399 16.336 135.207 16.168 135.207 15.4V11.368C135.207 8.08001 133.623 6.66401 130.167 6.66401C128.247 6.66401 126.711 7.09601 124.839 8.36801L125.751 10.72H127.119C127.527 9.49601 127.839 9.04001 128.127 8.75201C128.487 8.39201 129.039 8.27201 129.615 8.27201C130.815 8.27201 131.391 9.184 131.391 11.248V11.728C129.879 11.824 128.391 12.088 127.095 12.592C125.439 13.216 124.407 14.392 124.407 15.928C124.407 17.944 125.895 19.24 128.199 19.24ZM129.759 16.696C128.919 16.696 128.295 16.048 128.295 15.184C128.295 14.272 128.871 13.672 129.855 13.36C130.287 13.216 130.815 13.096 131.391 13.048V15.856C130.983 16.408 130.383 16.696 129.759 16.696Z" fill="#0A0911"/>
<path d="M144.913 19V18.184L144.073 17.728C143.449 17.368 143.329 17.104 143.329 16.12V10.672C143.881 10.096 144.649 9.66401 145.369 9.66401C146.761 9.66401 147.505 10.6 147.505 12.376V16.12C147.505 17.104 147.385 17.368 146.761 17.728L145.921 18.184V19H153.049V18.184L152.209 17.728C151.489 17.32 151.321 17.008 151.321 16.12V11.632C151.321 8.51201 149.833 6.66401 147.337 6.66401C145.897 6.66401 144.313 7.67201 143.017 9.30401V7.12001L142.273 6.66401L137.881 8.56001V9.37601L138.649 9.68801C139.345 9.97601 139.513 10.312 139.513 11.512V16.12C139.513 17.008 139.345 17.32 138.625 17.728L137.785 18.184V19H144.913Z" fill="#0A0911"/>
</svg>
